<svg xml:space="preserve" viewBox="0 0 4500 3500" height="3500px" width="4500px" y="0px" x="0px" xmlns:xlink="http://www.w3.org/1999/xlink" xmlns="http://www.w3.org/2000/svg" id="svg8" version="1.1">
<defs>
	
	
		
		
</defs>

	
	
	
		
	
	

<g id="layer2">
	<path d="M2364.908,415.646
		c284.475-0.825,635.141,79.82,864.422,351.49c107.588,127.477,161.471,247.249,184.158,357.947
		c131.092,110.053,206.895,272.38,207.121,443.543c-0.198,105.853-29.355,209.634-84.313,300.103
		c224.39,85.942,372.574,301.321,372.635,541.606c-0.273,161.707-68.029,315.961-186.927,425.564
		c-3.735,6.08-6.011,9.425-6.011,9.425l283.617,247.444H500.244c0,0,141.16-38.266,264.411-103.636
		c-76.094-67.273-119.742-163.908-119.91-265.476c0.164-146.427,90.181-277.742,226.696-330.698
		c-115.197-112.331-180.17-266.407-180.193-427.306c0.56-211.604,113.101-407.1,295.808-513.847
		c-35.528-73.416-54.097-153.88-54.333-235.44c-0.001-300.492,243.596-544.087,544.087-544.088c0,0,0,0,0,0
		c67.506,0.003,134.422,12.569,197.33,37.055c75.746-92.625,167.014-154.369,253.032-208.549
		C1995.902,457.495,2163.879,416.23,2364.908,415.646L2364.908,415.646z" fill="#F2F4FF" id="path20057-52-7-0"></path>
	<path d="M1313.474,1970.256
		c153.521,0.375,287.952,32.289,364.844,120.372c273.395,313.181,223.216,465.033,558.039,488.283
		c334.825,23.253,557.735-56.945,681.122,228.458c102.875,237.96,443.243,136.901,615.557,285.4H966.819
		c0,0,141.16-38.266,264.411-103.636c-76.093-67.273-119.742-163.908-119.909-265.476c0.164-146.427,90.181-277.742,226.696-330.698
		c-111.671-109.157-176.122-257.728-179.532-413.849C1211.289,1973.378,1263.398,1970.132,1313.474,1970.256L1313.474,1970.256z" fill="#E7EAFF" id="path20059-1-3-0"></path>
	<g transform="translate(-1455.236)" id="g7512">
		<path d="M3155.594,407.209h1099.14c129.512,0,233.775,104.264,233.775,233.776v2218.01c0,129.513-104.311,230.334-233.775,233.776
			h-537.657h-561.483c-129.512,0-233.776-104.264-233.776-233.776V640.985C2921.818,511.474,3026.082,407.209,3155.594,407.209z" fill="#B7BBFF" id="rect25806-8-3-5"></path>
		<path d="M3266.616,622.523h877.096c103.349,0,186.55,83.201,186.55,186.549V2579.01c0,103.349-83.238,183.803-186.55,186.549h-429.042
			h-448.054c-103.348,0-186.549-83.2-186.549-186.549V809.073C3080.066,705.725,3163.267,622.523,3266.616,622.523z" fill="#F2F4FF" id="path25898-5-3-6"></path>
		<path d="M3162.787,407.209
			h281.261v433.914h-586.968C2891.349,637.956,2898.205,407.209,3162.787,407.209L3162.787,407.209z" fill="#B7BBFF" id="rect25808-5-7"></path>
		<path d="M3444.048,407.209h522.23v433.914h-522.23V407.209z" fill="#E3E1FF" id="rect25810-2-6"></path>
		<path d="M2857.635,841.124
			c7.931,112.88,103.344,201.407,218.431,201.407h151.351c115.086,0,208.701-88.528,216.631-201.407H2857.635z" fill="#A5A3FF" id="rect25816-6-2"></path>
		<path d="M3444.048,841.124
			c7.932,112.88,101.545,201.407,216.632,201.407h88.411c115.086,0,208.702-88.528,216.632-201.407H3444.048z" fill="#B7BBFF" id="path25821-3-7"></path>
		<path d="M4247.541,407.209
			h-281.262v433.914h586.969C4518.978,637.956,4512.123,407.209,4247.541,407.209z" fill="#B7BBFF" id="path25828-5-8"></path>
		<path d="M4552.693,841.124
			c-7.932,112.88-103.346,201.407-218.432,201.407h-151.351c-115.087,0-208.701-88.528-216.632-201.407H4552.693z" fill="#A5A3FF" id="path25830-3-2"></path>
		<path d="M3803.074,2927.469
			c0,54.074-43.836,97.91-97.91,97.909l0,0c-54.074,0-97.91-43.835-97.91-97.909s43.835-97.909,97.91-97.909l0,0
			C3759.238,2829.559,3803.074,2873.395,3803.074,2927.469L3803.074,2927.469z" fill="#E3E1FF" id="path25902-9-6-6"></path>
	</g>
	<g transform="translate(99.151732)" id="g8181">
		
			<path d="M3404.701,2742.381c-46.44,12.444-42.331-24.516-88.771-36.959c-46.441-12.443-61.361,21.619-95.358-12.379
			c-33.997-33.997,0.064-48.917-12.377-95.358c-12.444-46.44-49.404-42.33-36.961-88.771c12.444-46.44,42.396-24.401,76.395-58.398
			c33.997-33.997,11.957-63.95,58.398-76.394c46.441-12.444,42.332,24.516,88.772,36.959s61.36-21.619,95.357,12.379
			c33.998,33.997-0.064,48.917,12.378,95.358c12.444,46.44,49.404,42.331,36.96,88.771s-42.397,24.401-76.395,58.398
			C3429.103,2699.984,3451.141,2729.938,3404.701,2742.381z" fill="#CECFFF" id="path8168"></path>
		<path d="M3354.523,2475.875
			c-14.567,0.472-25.052,14.166-21.708,28.353c0,0,63.172,287.187,72.711,494.45c0.338,12.916,11.217,23.036,24.123,22.442
			c12.907-0.595,22.811-11.671,21.96-24.563c-9.876-214.574-73.741-502.285-73.741-502.285
			C3375.599,2483.275,3365.745,2475.509,3354.523,2475.875z" fill="#CECFFF" id="path8150"></path>
		<path d="M3687.456,2506.525
			c14.553,0.797,24.729,14.722,21.07,28.829c0,0-69.559,285.707-83.716,492.707c-0.626,12.905-11.728,22.78-24.618,21.898
			c-12.891-0.881-22.545-12.176-21.407-25.047c14.657-214.3,84.921-500.517,84.921-500.517
			C3666.219,2513.454,3676.245,2505.91,3687.456,2506.525z" fill="#B7BBFF" id="path8152"></path>
		<path d="M3311.718,2852.631
			l28.827,186.544c4.002,29.3,23.807,53.379,53.379,53.379h237.17c29.572,0,48.844-24.155,53.379-53.379l27.175-186.544H3311.718z" fill="#CECFFF" id="path8154"></path>
		<path d="M3311.718,2852.631
			l7.878,51.444h384.719l7.333-51.444H3311.718z" fill="#A5A3FF" id="path8156"></path>
		<path d="M3645,2685.734c-46.44-12.442-24.4-42.396-58.398-76.393c-33.997-33.998-63.95-11.958-76.395-58.399
			c-12.443-46.44,24.516-42.33,36.96-88.771c12.444-46.44-21.619-61.361,12.378-95.358s48.918,0.066,95.358-12.378
			c46.441-12.444,42.331-49.403,88.772-36.96c46.441,12.444,24.402,42.397,58.398,76.395c33.998,33.997,63.95,11.958,76.395,58.398
			c12.443,46.441-24.516,42.331-36.959,88.771c-12.444,46.441,21.617,61.361-12.379,95.359
			c-33.998,33.996-48.918-0.066-95.359,12.377C3687.332,2661.22,3691.442,2698.179,3645,2685.734L3645,2685.734z" fill="#B7BBFF" id="path8170"></path>
		<path d="M3498.635,2278.111
			c-14.553-0.795-26.188,11.938-24.087,26.36c0,0,37.987,291.588,29.489,498.897c-0.783,12.895,9.176,23.92,22.084,24.449
			s23.735-9.644,24.01-22.561c8.799-214.621-29.837-506.791-29.837-506.791C3518.99,2287.314,3509.846,2278.723,3498.635,2278.111
			L3498.635,2278.111z" fill="#A5A3FF" id="path8148"></path>
		
			<path d="M3516.309,2545.671c-48.079,0-34.543-34.636-76.181-58.676s-64.866,5.001-88.906-36.636
			c-24.04-41.639,12.725-47.234,12.725-95.313s-36.765-53.676-12.725-95.313c24.04-41.637,47.269-12.596,88.906-36.637
			c41.638-24.039,28.102-58.676,76.181-58.676c48.08,0,34.543,34.637,76.181,58.676c41.638,24.041,64.866-5,88.905,36.637
			c24.041,41.639-12.724,47.234-12.724,95.313s36.765,53.675,12.724,95.313c-24.039,41.637-47.268,12.596-88.905,36.636
			S3564.387,2545.671,3516.309,2545.671L3516.309,2545.671z" fill="#A5A3FF" id="path8162"></path>
		<path d="M3298.676,2757.316h427.398
			c29.572,0,53.379,23.807,53.379,53.38c0,29.572-23.807,53.379-53.379,53.379h-427.398c-29.57,0-53.379-23.807-53.379-53.379
			C3245.297,2781.123,3269.105,2757.316,3298.676,2757.316z" fill="#CECFFF" id="path8158"></path>
	</g>
	<path d="M3331.635,3007.891
		l-8.137-66.247h79.373h18.908l1.645,93.347L3331.635,3007.891z" fill="#F6C6C0" id="path913-0-7-99"></path>
	<path d="M3061.45,1022.605l-34.001,28.734
		c-31.019,9.714-162.112,50.958-232.031,76.383c-13.692,4.979-28.46,14.655-43.78,27.672c0,0-71.427,76.901-122.505,131.067
		c-53.393,56.622-96.59,134.067-97.633,215.303c-1.072,83.465-3.305,327.763-3.305,327.763l125.777-2.352
		c-1.174,25.477-1.391,50.946-0.387,76.346h370.162c28.525-94.811,51.458-169.257,89.338-240.273
		c22.403,24.074,47.407,44.408,69.604,52.591c56.533,20.84,163.645,25.177,163.645,25.177l-10.791-192.416
		c0,0,46.757-160.047,30.571-244.566c-16.185-84.519-61.661-132.151-61.661-132.151c-7.298-6.33-15.244-12.603-23.92-18.823
		C3189.609,1088.245,3061.451,1022.605,3061.45,1022.605L3061.45,1022.605z" fill="#6584F7" id="path6339-1-0-6"></path>
	<path d="M3188.084,1552.198l47.311-176.564l-2.354,248.495
		L3188.084,1552.198z" fill="#3362C4" id="path18433-6-1"></path>
	<path d="M3282.174,867.512
		l25.258,60.377C3391.889,917.046,3349.189,725.816,3282.174,867.512z" fill="#F69CB3" id="path883-9-9-0-8"></path>
	<path d="M3316.41,730.594
		c0,0,27.944,5.471,43.503,31.498c15.558,26.027-32.409,111.985-32.409,111.985L3316.41,730.594z" fill="#3D3D3D" id="path876-7-03-7"></path>
	<path d="M3082.177,717.89
		c0,0-39.151-1.488-48.72,47.604c-9.57,49.091,35.13,141.506,35.13,141.506c-6.122,66.664,17.149,119.406,74.087,56.476
		c25.732-30.599,38.262-197.116,38.262-197.116s105.659,14.462,148.606-19.478c42.948-33.939,87.632-133.87,27.095-151.619
		c-60.537-17.75-73.482,25.353-203.203,22.138C3085.689,615.721,3058.699,671.706,3082.177,717.89L3082.177,717.89z" fill="#3D3D3D" id="path874-7-12-4"></path>
	<path d="M3126.219,914.696
		l-44.941,113.228l73.153,156.112l37.93-41.46l15.195-85.395L3126.219,914.696z" fill="#F6C6C0" id="path885-8-7-7-2"></path>
	<path d="M3089.395,932.171
		l119.264,116.579l-7.802,45.365l10.173,26.704c-14.012,1.018-28.051-1.735-39.167-11.958
		c-35.245-32.412-47.43-116.438-47.43-116.438L3089.395,932.171z" fill="#F69CB3" id="path887-3-62-9"></path>
	<path d="M3089.395,932.17
		c-84.818-7.52-49.658-200.277,22.867-61.323c18.133-31.708,56.467-78.39,33.988-138.455
		c63.436,19.295,116.033,34.167,183.292,14.488C3362.255,1040.854,3217.984,1222.8,3089.395,932.17L3089.395,932.17z" fill="#F6C6C0" id="path870-4-92-3"></path>
	<path d="M3092.371,892.237
		c0.348-1.512-4.594-23.232-17.298-38.031c-12.704-14.798-22.878,3.459-22.878,3.459s11.213-3.606,17.813,6.797
		c6.6,10.404-14.575,23.986,5.604,36.379C3095.794,913.236,3092.371,892.237,3092.371,892.237z" fill="#F69CB3" id="path894-3-5-6"></path>
	<path d="M3154.431,1184.037
		l-73.153-156.113l12.309-30.561c-35.148,13.678-53.865,31.2-53.525,50.017l32.783,164.383L3154.431,1184.037z" fill="#FFFFFF" id="path881-1-6-6"></path>
	<path d="M3192.36,1142.576
		l8.496-48.461c29.421,15.178,56.614,41.999,42.283,69.144c-4.425,7.982-45.482,101.991-45.482,101.991l-43.227-81.214
		L3192.36,1142.576z" fill="#FFFFFF" id="path884-3-9-35"></path>
	<path d="M3023.717,1930.827l120.146,103.44l215.487,196.107c51.909,51.909,69.109,129.018,68.625,201.141
		c0.046,170.074-3.03,340.094-6.195,510.128h-98.281c-13.533-193.105-42.703-341.796-75.316-532.286l-362.434-186.601
		l-87.057,271.098c-38.23,106.465-63.81,129.124-88.632,159.4l-228.464,288.389h-111.76l227.211-385.715l39.35-419.443
		l10.822-179.289L3023.717,1930.827z" fill="#FF6853" id="path17531-3-4"></path>
	<path d="M3299.086,2709.129h127.021l-4.328,232.515h-98.281
		L3299.086,2709.129z" fill="#E0523C" id="path935-5-3-5"></path>
	<path d="M2885.748,2222.757
		l45.386-103.908h37.067l1.863,141.141L2885.748,2222.757z" fill="#E0523C" id="path925-0-5-4"></path>
	<path d="M3023.746,1903.522
		l-0.029,27.305l-376.498,26.369l6.367-53.674H3023.746z" fill="#FFFFFF" id="path927-1-3-7-7"></path>
	<path d="M3421.779,2971.033
		l-95.119,1.104l4.975,35.754c0,0,91.337-5.953,91.543-6.981C3423.383,2999.882,3421.779,2971.033,3421.779,2971.033
		L3421.779,2971.033z" fill="#FFFFFF" id="path915-1-9-2"></path>
	<path d="M3581.119,3092.779
		H3322.17l9.465-84.888l30.843-8.436c20.995-20.271,59.427-25.241,85.655,4.63c0,0,48.004,34.541,71.42,35.125
		C3566.994,3039.211,3584.728,3048.291,3581.119,3092.779L3581.119,3092.779z" fill="#3D3D3D" id="path929-1-0-5"></path>
	<path d="M3268.019,1642.53
		l7.571,38.519c0,0-69.91,20.779-77.73,53.031c-7.821,32.251,101.256,88.952,137.642,80.267
		c36.386-8.683,69.772-89.317,47.528-143.463C3372.105,1639.717,3256.436,1583.612,3268.019,1642.53L3268.019,1642.53z" fill="#F6CDC1" id="path18423-6-9"></path>
	<path d="M3549.046,1232.361
		c3.575,113.607,67.682,213.909,162.97,254.987c9.66,46.976,14.652,95.477,14.852,144.229c0,268.793-279.58,550.271-407.389,550.271
		c-126.282,0-407.39-300.863-407.39-550.271c0.216-48.652,5.21-97.051,14.849-143.931
		c95.326-41.164,159.396-141.603,162.846-255.286H3549.046z" fill="#CECFFF" id="path21536-3"></path>
	<path d="M3482.164,1370.67
		c2.535,80.51,47.965,151.59,115.492,180.7c6.846,33.291,10.385,67.662,10.525,102.211c0,190.484-198.13,389.959-288.703,389.959
		c-89.492,0-288.703-213.212-288.703-389.959c0.154-34.479,3.691-68.777,10.521-101.999
		c67.556-29.171,112.96-100.349,115.404-180.912H3482.164z" fill="#E3E1FF" id="path1850-5"></path>
	<path d="M3202.514,1681.577
		c4.353,65.947,61.342,115.879,127.287,111.525c65.947-4.353,115.879-61.34,111.525-127.287l0,0
		c-4.352-65.946-61.34-115.878-127.286-111.526h-0.001C3248.094,1558.643,3198.162,1615.631,3202.514,1681.577L3202.514,1681.577
		L3202.514,1681.577z" fill="#B7BBFF" id="circle1852-3"></path>
	<path d="M2432.544,3013.735
		l49.052-72.092h-92.853h-18.907l-51.595,93.346L2432.544,3013.735z" fill="#F6C6C0" id="path924-5-0-8"></path>
	<path d="M2353.312,2971.033
		l106.231,2.902l-26.999,39.8c0,0-102.747,1.028-102.518,0C2330.254,3012.709,2353.312,2971.033,2353.312,2971.033z" fill="#FFFFFF" id="path926-4-5-7"></path>
	<path d="M2568.147,3092.779
		c-63.814,0-232.565,0-280.989,0l21.741-40.088l21.128-38.956c15.392-2.884,19.34-3.688,51.379-9.599
		c24.723-20.27,57.707-26.623,69.828,3.232C2481.634,3049.344,2565.422,3016.95,2568.147,3092.779L2568.147,3092.779z" fill="#3D3D3D" id="path928-3-7-0"></path>
	<path d="M2506.134,2710.264l158.104,0.834l-182.643,230.546
		h-111.76L2506.134,2710.264z" fill="#E0523C" id="path1856-6"></path>
	<path d="M1581.429,826.604
		c0,0,54.7,238.281,123.946,382.803c69.246,144.521-36.538,263.595-156.35,238.842c-119.812-24.754-351.487-131.84-351.487-131.84
		l-62.365,128.993c0,0-165.785-191.633-1.036-358.381c75.621-71.714,95.966-219.127,95.966-219.127
		S1519.583,751.76,1581.429,826.604L1581.429,826.604z" fill="#3D3D3D" id="path17620"></path>
	<path d="M1388.004,1149.436
		c34.461-2.16,62.303,1.921,62.303,1.921c57.352,60.271,164.578,92.494,227.437,150.584
		c44.858,55.172,123.987,110.94,198.162,223.368l-101.427,72.924l-90.041-52.099l88.312,385.534h-366.564l-136.89-253.839
		c-38.571-6.597-62.277-24.273-72.376-48.654c-12.154,31.555-27.715,62.812-46.856,102.471l-117.939-11.817
		c50.527-176.41,70.345-270.874,125.819-393.453c47.938-89.327,77.199-79.153,113.679-123.679
		C1295.184,1163.746,1346.413,1152.043,1388.004,1149.436L1388.004,1149.436z" fill="#FF6853" id="path17622"></path>
	<path d="M1241.831,898.531
		l-32.162,57.001C1127.066,934.86,1191.893,749.957,1241.831,898.531z" fill="#F69CB3" id="path17624"></path>
	<path d="M1425.7,985.348
		c0,0-0.555,82.96,3.324,118.889c3.879,35.928,4.416,55.493,4.416,55.493l-82.743,85.839l-48.782-39.842l18.725-94.363
		L1425.7,985.348z" fill="#F6C6C0" id="path17626"></path>
	<path d="M1425.701,985.349
		l-115.919,91.748l3.555,71.167c26.364,0.413,54.299-49.552,70.5-107.187L1425.701,985.349z" fill="#F69CB3" id="path17628"></path>
	<path d="M1425.7,985.348
		c85.115,2.478,72.798-193.072-15.519-63.581c-14.291-33.615-46.885-84.471-17.521-141.486
		c-65.258,11.724-119.238,20.326-183.725-7.103C1141.979,1061.287,1263.919,1258.896,1425.7,985.348z" fill="#F6C6C0" id="path17630"></path>
	<path d="M1427.425,945.341
		c-0.166-1.542,7.287-22.534,21.639-35.74c14.352-13.206,22.315,6.117,22.315,6.117s-10.714-4.896-18.488,4.662
		c-7.774,9.558,11.663,25.529-9.832,35.471C1421.565,965.794,1427.425,945.341,1427.425,945.341z" fill="#F69CB3" id="path17632"></path>
	<path d="M1350.697,1245.569
		l82.169-93.782l-2.349-30.09c32.206,19.63,38.344,53.471,34.711,71.936l-48.108,119.022L1350.697,1245.569z" fill="#FFFFFF" id="path17634"></path>
	<path d="M1301.915,1205.727
		l11.422-57.463c-31.627,9.783-58.194,56.749-48.846,85.986c2.957,8.635,29.409,83.694,29.409,83.694l56.797-72.375
		L1301.915,1205.727z" fill="#FFFFFF" id="path17636"></path>
	<path d="M1206.948,787.575
		c9.226,73.639,117.926,184.816,191.174,163.95l12.059-29.758c0,0,26.153-41.611,51.63-44.318
		c25.477-2.707,119.617-50.845,119.617-50.845s-13.811-123.209-82.588-186.101c-68.778-62.892-194.767-24.813-269.669,7.686
		c-43.073,18.688-40.058,70.28-40.058,70.28c-23.255,36.693-57.074,64.886-39.248,114.291
		c17.828,49.405,41.282,60.649,41.282,60.649S1195.093,833.998,1206.948,787.575L1206.948,787.575z" fill="#3D3D3D" id="path17638"></path>
	<path d="M1269.296,1677.83
		c34.645-2.287,78.465-8.616,118.315-86.872c37.819,33.646,82.774,65.015,168.082,42.508l-203.189,199.597L1269.296,1677.83z" fill="#E0523C" id="path17640"></path>
	<path d="M1875.906,1525.309c0,0,30.131,34.899,36.425,48.386
		c6.293,13.487,10.789,388.428,8.092,412.704s-30.57,44.957-40.461,49.452c-9.89,4.496-42.26-11.688-57.545-14.386
		c-15.286-2.698-7.193-40.461-10.79-42.26c-3.596-1.798-16.184-13.486-17.982-19.78c-1.798-6.295,28.772-43.159,44.957-66.536
		c16.185-23.378-23.377-253.557-23.377-253.557l-44.058-62.94L1875.906,1525.309z" fill="#F6CDC1" id="path8045"></path>
	<path d="M1790.058,1615.334
		l-39.558-23.364l132.361-129.139l30.169,72.649L1790.058,1615.334z" fill="#FFFFFF" id="path17650"></path>
	<path d="M1255.898,1690.747
		c9.221,0.243,16.105,9.681,18.494,29.62c-5.075,8.691,27.696,32.799,20.377,47.301c-11.244,22.275-39.376,39.703-45.583,43.193
		c-21.907,11.28-42.436,9.288-70.864,11.371c0,0-61.961,18.127-113.426,16.566c-51.465-1.559-33.823-57.526-32.887-70.654
		c0.936-13.128,14.162-72.121,14.162-72.12l106.14,16.781l-20.829,51.396l24.367-2.124c23.079-4.732,16.875-40.267,34.333-55.345
		c13.009-10.262,28.502,16.716,28.502,16.716C1231.994,1702.006,1245.447,1690.472,1255.898,1690.747z" fill="#F6CDC1" id="path17656"></path>
	<path d="M1131.481,1764.201
		l-62.624,4.133l83.454-55.528L1131.481,1764.201z" fill="#F69CB3" id="path17660"></path>
	<path d="M1307.416,3007.891
		l8.138-66.247h-79.374h-18.907l-1.645,93.347L1307.416,3007.891z" fill="#F6C6C0" id="path17662"></path>
	<path d="M1406.215,1958.973l-159.767,335.156c-21.81,56.694-29.974,125.081-30.802,193.06l-2.702,221.94l4.328,232.515h98.28
		l24.411-232.515l42.839-297.372l175.183-196.621l15.617-15.968c49.88,66.193,167.445,288.252,206.555,361.779
		c61.141,133.073,169.037,380.696,169.037,380.696h90.145l-45.781-232.515l-210.844-723.787L1406.215,1958.973z" fill="#6584F7" id="path17664"></path>
	<path d="M1339.964,2709.129h-127.021l4.328,232.515h98.282
		L1339.964,2709.129z" fill="#3362C4" id="path17666"></path>
	<path d="M1406.186,1931.669
		l0.031,27.304l376.498,26.369l-9.963-53.673H1406.186z" fill="#FFFFFF" id="path17670"></path>
	<path d="M1217.271,2971.033
		l95.119,1.104l-4.974,35.754c0,0-91.336-5.953-91.542-6.981C1215.668,2999.882,1217.271,2971.033,1217.271,2971.033z" fill="#FFFFFF" id="path17672"></path>
	<path d="M1096.596,3092.779h220.286
		l-9.466-84.888l-30.842-8.436c-20.996-20.271-59.427-25.241-85.655,4.63C1161.918,3055.202,1096.596,3019.258,1096.596,3092.779
		L1096.596,3092.779z" fill="#3D3D3D" id="path17674"></path>
	<path d="M1150.063,1731.646
		l20.578-33.841l-150.05-55.791l11.532,77.814L1150.063,1731.646z" fill="#FFFFFF" id="path17688"></path>
	<path d="M1573.602,2199.168
		l-61.275-84.682l-23.217-0.072l-8.637,187.672L1573.602,2199.168z" fill="#3362C4" id="path23470"></path>
	<path d="M1846.863,2709.129
		c51.601,116.088,102.331,232.515,102.331,232.515h90.145l-41.14-206.712l-4.641-25.803H1846.863z" fill="#3362C4" id="path8015"></path>
	<path d="M1967.75,3013.735
		l-18.556-72.092h71.237h18.908l12.106,93.346L1967.75,3013.735z" fill="#F6C6C0" id="path8018"></path>
	<path d="M2043.431,2971.033
		l-85.844,2.901l10.163,39.801c0,0,83.245-11.8,83.45-12.827C2051.406,2999.881,2043.431,2971.032,2043.431,2971.033
		L2043.431,2971.033z" fill="#FFFFFF" id="path8020"></path>
	<path d="M2119.025,3092.779
		c27.737,0-104.48,0-152.906,0l1.631-79.044l22.75-14.28c20.996-20.27,52.931-28.422,70.542,1.434
		C2083.879,3060.029,2122.718,3035.508,2119.025,3092.779z" fill="#3D3D3D" id="path8022"></path>
	<path d="M2537.418,1994.887
		c-0.734-18.523,17.053-113.849,17.053-113.849l0.194-2.952l91.362-4.612c5.291,9.468,14.316,18.788,26.954,34.61
		c-1.375,2.904,34.957,40.481,51.627,61.648c5.064,25.63-42.582,45.092-42.582,45.092
		C2703.717,2092.361,2543.122,2100.852,2537.418,1994.887L2537.418,1994.887z" fill="#F6CDC1" id="path22607-4"></path>
	<path d="M2530.66,1879.299
		l135.094-6.822l6.029-45.631l-143.588,2.683L2530.66,1879.299z" fill="#FFFFFF" id="path22609-7"></path>
	<path d="M2554.471,1881.038
		l119.912,28.606l-28.354-36.171l-91.363,4.613L2554.471,1881.038z" fill="#F69CB3" id="path22611-5"></path>
	<path d="M2671.783,1826.846l43.033-334.976l133.516-101.726
		L2671.783,1826.846z" fill="#3362C4" id="path8029"></path>
	<path d="M1015.342,1672.072l47.311-176.564l-2.354,248.496
		L1015.342,1672.072z" fill="#3362C4" id="path8035"></path>
	<path d="M1095.276,1762.405
		l7.572,38.518c0,0-69.91,20.78-77.731,53.031c-7.822,32.251,101.255,88.952,137.642,80.268
		c36.386-8.684,69.773-89.317,47.528-143.463C1199.363,1759.592,1083.694,1703.486,1095.276,1762.405L1095.276,1762.405z" fill="#F6CDC1" id="path8037"></path>
	<path d="M1376.303,1352.235
		c3.576,113.607,67.682,213.909,162.971,254.987c9.658,46.976,14.652,95.477,14.851,144.23
		c0,268.793-279.581,550.271-407.388,550.271c-126.283,0-407.39-300.862-407.39-550.271c0.215-48.653,5.209-97.052,14.847-143.931
		c95.327-41.164,159.397-141.603,162.847-255.286H1376.303z" fill="#CECFFF" id="path8039"></path>
	<path d="M1309.423,1490.544
		c2.533,80.511,47.963,151.591,115.492,180.701c6.844,33.29,10.383,67.661,10.523,102.21c0,190.484-198.129,389.959-288.703,389.959
		c-89.492,0-288.703-213.211-288.703-389.959c0.153-34.479,3.691-68.776,10.521-101.998
		c67.556-29.171,112.959-100.349,115.404-180.913H1309.423z" fill="#E3E1FF" id="path8041"></path>
	<path d="M1001.235,1801.105
		c4.353,65.946,61.341,115.878,127.288,111.525c65.946-4.353,115.877-61.341,111.525-127.288l0,0
		c-4.353-65.946-61.341-115.877-127.288-111.525l0,0C1046.813,1678.17,996.882,1735.159,1001.235,1801.105L1001.235,1801.105
		L1001.235,1801.105z" fill="#B7BBFF" id="path8121"></path>
	<path d="M996.269,2351.168c-49.286-7.254-94.803,26.586-102.056,75.871l-26.185,177.928
		c-7.252,49.285,26.585,94.803,75.872,102.056s94.803-26.585,102.056-75.871l26.185-177.928
		C1079.393,2403.938,1045.555,2358.421,996.269,2351.168z" fill="#B7BBFF" id="rect8142"></path>
	<path d="M571.384,2347.88c48.788-10.073,96.174,21.094,106.247,69.882l36.365,176.129
		c10.073,48.787-21.094,96.174-69.882,106.246c-48.788,10.074-96.174-21.094-106.247-69.881l-36.365-176.129
		C491.429,2405.339,522.597,2357.952,571.384,2347.88L571.384,2347.88z" fill="#CECFFF" id="rect8140"></path>
	<path d="M773.007,2244.843
		c-14.553-0.794-26.188,11.938-24.087,26.36c0,0,37.989,291.588,29.49,498.897c-0.784,12.896,9.174,23.921,22.083,24.45
		c12.909,0.529,23.736-9.645,24.01-22.561c8.799-214.621-29.837-506.791-29.837-506.791
		C793.361,2254.047,784.219,2245.455,773.007,2244.843z" fill="#A5A3FF" id="path10015"></path>
	<path d="M616.307,2475.875
		c-14.567,0.472-25.052,14.166-21.708,28.353c0,0,63.171,287.187,72.71,494.45c0.338,12.916,11.217,23.036,24.123,22.442
		c12.907-0.595,22.811-11.671,21.961-24.563c-9.876-214.574-73.742-502.285-73.742-502.285
		C637.383,2483.275,627.528,2475.509,616.307,2475.875z" fill="#CECFFF" id="path10017"></path>
	<path d="M972.617,2506.525
		c14.552,0.797,24.729,14.722,21.069,28.829c0,0-69.558,285.707-83.716,492.707c-0.625,12.905-11.727,22.78-24.618,21.898
		c-12.891-0.881-22.544-12.176-21.407-25.047c14.657-214.3,84.921-500.517,84.921-500.517
		C951.38,2513.454,961.407,2505.91,972.617,2506.525z" fill="#B7BBFF" id="path10019"></path>
	<path d="M596.88,2852.631
		l28.827,186.544c4.002,29.3,23.808,53.379,53.379,53.379h237.169c29.572,0,48.844-24.155,53.379-53.379l27.175-186.544H596.88z" fill="#CECFFF" id="path10023"></path>
	<path d="M596.88,2852.631
		l7.877,51.444h384.719l7.333-51.444H596.88z" fill="#A5A3FF" id="path10025"></path>
	<path d="M583.839,2757.316h427.397
		c29.572,0,53.379,23.807,53.379,53.38c0,29.572-23.807,53.379-53.379,53.379H583.839c-29.572,0-53.379-23.807-53.379-53.379
		C530.46,2781.123,554.267,2757.316,583.839,2757.316L583.839,2757.316z" fill="#B7BBFF" id="path10027"></path>
	<path d="M745.24,2218.842c65.796-9.438,126.361,35.936,135.799,101.73l34.068,237.53
		c9.437,65.796-35.935,126.362-101.731,135.799c-65.796,9.437-126.363-35.935-135.799-101.73l-34.068-237.53
		C634.072,2288.845,679.444,2228.279,745.24,2218.842z" fill="#A5A3FF" id="rect8138"></path>
</g>
</svg>
