<svg viewBox="0 0 1200 1200" xmlns="http://www.w3.org/2000/svg" id="图层_1"><defs><style>.cls-1{fill:#f9ad73;}.cls-2{fill:#231815;}.cls-3{fill:#ff7e78;}.cls-4{fill:#3e3a39;}.cls-5{fill:#fff;}.cls-6{fill:#fcc49d;stroke:#231815;stroke-miterlimit:10;stroke-width:2px;}.cls-7{fill:#8e5d0e;}.cls-8{fill:#bfbfb8;}</style></defs><rect transform="matrix(0.87, -0.5, 0.5, 0.87, -197.99, 199.07)" rx="52.26" height="141.84" width="104.56" y="398.07" x="220.19" class="cls-1"></rect><path d="M301.24,518.94a26.6,26.6,0,0,1-7,3.16,51.54,51.54,0,0,1-5.23,1.38c-.87.18-1.75.35-2.64.48,1.9-.28-.32,0-1.11,0-1.77.08-3.53.14-5.3.07-.64,0-4.73-.39-2.39-.08a47.69,47.69,0,0,1-11.43-3.06c1.8.73-1.72-.88-2.23-1.14-1.57-.83-3.07-1.75-4.56-2.72-.22-.14-2.44-1.72-1.36-.9s-1-.9-1.26-1.07a52.74,52.74,0,0,1-4.34-4.25,50.83,50.83,0,0,1-5.73-8.49l-14.45-25c-5.29-9.16-8.16-15.63-8.06-24.95,0-1.54.11-3.08.26-4.62-.21,2.18,0,0,.06-.39.18-.86.33-1.73.53-2.59.39-1.71.87-3.4,1.42-5.07.28-.83.58-1.66.91-2.48-.77,1.92.36-.71.54-1.05.82-1.57,1.64-3.11,2.59-4.61.47-.75,1-1.48,1.48-2.22,1.24-1.82-1.06,1.22.35-.5a52.37,52.37,0,0,1,3.64-4c.49-.48,1-.95,1.48-1.4,0,0,3.1-2.54,1.57-1.39,6.05-4.56,10-6.16,16.88-7.59.87-.19,1.76-.36,2.64-.49-2.15.31.08,0,.45,0,1.77-.06,3.53-.19,5.3-.14.87,0,5.16.38,3.05.1a46,46,0,0,1,5.8,1.21c1.71.46,3.37,1,5,1.62,2.07.76-1.52-.75.48.2.59.28,1.19.56,1.78.87a36.29,36.29,0,0,1,8.27,5.44,35.25,35.25,0,0,1,8.69,10.79c4.52,7.76,9,15.55,13.47,23.33,1.59,2.75,3.21,5.48,4.77,8.25a38.61,38.61,0,0,1,5.15,19.24,40.2,40.2,0,0,1-4.63,18.62,38.47,38.47,0,0,1-14.89,15.38c-14.67,8.73-1.33,31.69,13.4,22.92,16.27-9.69,28.24-26.06,31.49-44.84,2.84-16.37-.35-32.17-8.63-46.51-12.18-21.08-22.67-45.91-46.07-56.69a67.07,67.07,0,0,0-56.76,0c-16.83,7.72-29.61,23.59-34.59,41.3a66.74,66.74,0,0,0,6.48,50.78c4.85,8.59,9.87,17.09,14.8,25.63,7.9,13.69,17.37,25.79,32.15,32.58,19.56,9,42.34,8.56,61.13-2.29C329.43,533.32,316.08,510.37,301.24,518.94Z" class="cls-2"></path><rect transform="matrix(0.5, -0.87, 0.87, 0.5, 52.85, 1029.52)" rx="52.26" height="104.56" width="141.84" y="416.71" x="847.1" class="cls-1"></rect><path d="M875.85,541.86c31.93,18.43,72.21,6,90.38-25.27,12-20.72,28.36-42.34,26.48-67.52a67,67,0,0,0-27.28-49.49c-15.14-11.17-35-14.61-53.22-10.45-17.51,4-32.58,15.63-41.67,31-4.91,8.3-9.65,16.72-14.47,25.07-7.84,13.57-14,27.59-12.74,43.73a66.88,66.88,0,0,0,32.52,52.95c14.71,8.76,28.08-14.18,13.4-22.92A40.57,40.57,0,0,1,876,506.42c-.95-1.5-1.77-3.05-2.59-4.62-.31-.58-.59-1.19-.86-1.79.81,1.84-.05-.19-.15-.49-.55-1.68-1.12-3.33-1.55-5-.22-.85-.41-1.71-.59-2.57,0-.17-.55-4.21-.31-1.69a60.85,60.85,0,0,1,0-9.92c.16-2.24-.34,1.77,0-.45.15-.88.32-1.76.52-2.63.44-2,1.07-3.92,1.66-5.87.07-.22.88-2.36.18-.66.35-.85.78-1.7,1.2-2.52s.92-1.73,1.41-2.59,1-1.73,1.5-2.6L891,437.81c1.56-2.7,3.1-5.37,4.8-8,1.42-2.18.8-1.13.41-.63.56-.71,1.17-1.4,1.78-2.07a51.12,51.12,0,0,1,3.84-3.81,34.6,34.6,0,0,1,7.68-5.13c9.79-5.19,23.72-5.95,33.55-1.13,6.76,3.31,9.74,5.63,14.7,11.26,1.75,2,.75.95.4.47.52.71,1,1.45,1.5,2.19q1.44,2.24,2.66,4.59c.4.78.79,1.58,1.14,2.38-.25-.57-.65-2,.16.5.62,1.88,1.24,3.74,1.7,5.67,2.33,9.63.75,19.59-4.74,29.17-4.55,7.95-9.15,15.86-13.73,23.79-1.67,2.9-3.29,5.85-5.05,8.7-.49.8-1,1.57-1.52,2.35l-.8,1.13c.53-.68.52-.68-.05,0a53.39,53.39,0,0,1-4.19,4.45c-.65.61-1.33,1.2-2,1.79l-1,.85c.75-.58.75-.6,0-.07-1.65,1.13-3.32,2.2-5.07,3.16a40,40,0,0,1-18.62,4.63c-.88,0-1.77,0-2.65-.07-.11,0-4.27-.42-1.78-.07a46.25,46.25,0,0,1-5.92-1.28,27,27,0,0,1-8.91-3.74C874.42,510.38,861,533.31,875.85,541.86Z" class="cls-2"></path><path d="M994.51,628.12a120,120,0,0,1-120,120c-35,0-63.72,1-85.66-22.95-42.91,36.08-101,41.89-161.07,41.89H559.58c-56.85,0-106.55-3.53-148.38-36.18-21.53,20.57-53.54,17.24-85.66,17.24a120,120,0,0,1-12.69-239.42v-135C312.85,238,423.88,127,559.58,127h68.15c135.7,0,246.73,111,246.73,246.73V508.07A120.06,120.06,0,0,1,994.51,628.12Z" class="cls-1"></path><path d="M982.51,628.12a99.91,99.91,0,0,1-2.7,24.15,105.21,105.21,0,0,1-8,22.84c-7.49,15.17-16.62,26.38-29.68,37.31-11.49,9.63-26.86,17-42.22,20.73-16.54,4.05-35.34,3.54-53.5,2.66-19-.91-35.76-4.82-49.14-19.09-4.72-5-12.11-4-17,0-43.12,35.86-103,38.38-156.49,38.38-38.09,0-76.76,1.58-114.72-1.76-33.2-2.92-65-12.08-91.84-32.78-4.26-3.29-11-1.42-14.54,1.88-10.36,9.61-24.31,12.63-38.1,13.5a353.59,353.59,0,0,1-48.17-.12c-24.76-1.85-49.44-13.43-67.32-31.3-18-18.06-29.62-43-31.35-68-1.87-27.08,5.54-53,22.35-74.73a111.42,111.42,0,0,1,31.27-27.19,95.81,95.81,0,0,1,19.79-9q5.51-1.82,11.18-3.08a95,95,0,0,1,10.48-1.81c6.45-.72,12-4.92,12-12V438.23c0-24.52-.73-49.17.17-73.67a229.3,229.3,0,0,1,12.86-67.85,208.8,208.8,0,0,1,13.35-30.79,249.08,249.08,0,0,1,18-29.28c25.28-35.28,63-64.95,103.27-80.91a237.45,237.45,0,0,1,67.44-16c13.49-1.07,27.06-.78,40.59-.78,34,0,68-1.5,100.18,6.08A236.35,236.35,0,0,1,858.39,330a213.82,213.82,0,0,1,3.9,34.55c.16,4.22.17,8.44.17,12.66V508.07a12.19,12.19,0,0,0,12,12,108.25,108.25,0,0,1,62.82,20.08c16.66,11.69,31.26,30.54,38.3,49.69a106.77,106.77,0,0,1,6.93,38.28c.09,15.43,24.09,15.47,24,0a133.66,133.66,0,0,0-86.77-124,131.64,131.64,0,0,0-45.28-8l12,12V434.91c0-25.9,1.19-52.17-.57-78-3.35-49.16-20.67-97.13-50.25-136.61a264.5,264.5,0,0,0-115.1-87.93A255.54,255.54,0,0,0,648,115.81c-14-1.16-28.15-.84-42.21-.84-35.93,0-71.7-1.25-107,7.25a260.06,260.06,0,0,0-124.8,71.56c-33.84,34.93-57.94,79.47-67.75,127.17-6.13,29.79-5.47,59.67-5.47,89.85v97.94l12-12c-32,3.54-61.91,17.61-83.89,41.34a133.2,133.2,0,0,0-35.43,87.18c-1.47,64.21,46.31,123.07,110.15,133a196.92,196.92,0,0,0,28.5,1.91c10.29.1,20.59.39,30.87-.17,20.87-1.12,41-6.07,56.64-20.62l-14.54,1.87c46.37,35.8,105.64,37.82,161.78,37.82,42.85,0,86.3,1.79,128.84-4,37.06-5.05,72.47-17.25,101.51-41.4h-17c15,16,34.63,23.09,56,25.37,10.5,1.12,21.09,1.11,31.63,1.11a173.72,173.72,0,0,0,31.71-2.45c37.72-7,71.48-31.79,90.1-65.24a134,134,0,0,0,16.73-64.36C1006.6,612.67,982.6,612.65,982.51,628.12Z" class="cls-2"></path><ellipse ry="37.17" rx="69.45" cy="610.11" cx="386.02" class="cls-3"></ellipse><ellipse ry="37.17" rx="69.45" cy="602.34" cx="809.77" class="cls-3"></ellipse><path d="M703.14,757.68c9.36-7.87,24.13-2.74,35.8-7.17a248.15,248.15,0,0,1,47.06-13c3.25-.54,6.52-1,9.83-1.37,3.66-.43,7.36-.74,11.08-.93a141.46,141.46,0,0,1,45.8,4.69c.72.2,1.44.41,2.15.63a107.69,107.69,0,0,1,43.9,25.61c32.65,31.32,42.34,79.7,25.54,121.71L803.12,1190.71h-418L263.93,887.85c-16.8-42-7.11-90.39,25.54-121.71a107.74,107.74,0,0,1,46-26.24c2.87-.81,5.76-1.51,8.65-2.1,19.65-4,39.71-3.38,58.61-.2q5.26.89,10.41,2h0c1.6.35,3.19.71,4.76,1.1a260.87,260.87,0,0,1,31.34,9.78" class="cls-4"></path><path d="M709.2,768a13.62,13.62,0,0,1,6.66-3c4.34-.56,8.78-.3,13.15-.63,9.88-.75,18.42-4.51,27.77-7.48,18.9-6,38.46-9.94,58.35-10,18.83,0,37.93,3.52,54.58,12.62a97.06,97.06,0,0,1,36.59,35c16.49,27.47,18.12,60.3,6.42,90-2.14,5.45-4.35,10.88-6.53,16.32l-38.81,97-48.24,120.59L801,1163.87c-3,7.5-6.4,15-9,22.58-.12.36-.28.72-.42,1.07l11.57-8.81H402.21c-5.41,0-11-.4-16.4,0-.23,0-.47,0-.7,0l11.57,8.81-21.06-52.64-44.9-112.22-42-105c-9.64-24.1-21.38-48-20.86-74.07.62-30.71,16-61.34,42.49-79,15.46-10.34,33.45-16,52-17.23a161.6,161.6,0,0,1,31.25.92c4.07.51,8.12,1.22,12.14,2,1.15.23,2.3.5,3.45.72s5.88,1.34,3.26.57c-2.17-.63,1,.39,1.58.52,1.5.36,3,.73,4.49,1.12a270,270,0,0,1,27.64,8.85c6.06,2.29,13.15-2.54,14.76-8.38,1.85-6.73-2.29-12.47-8.38-14.76A269.59,269.59,0,0,0,423,729.62c-2.19-.55-4.4-1.15-6.62-1.56-.52-.09-5.51-1.3-1.73-.37-1.14-.28-2.31-.48-3.46-.71-5.54-1.08-11.12-1.9-16.72-2.6-21-2.59-42.69-1.7-63,4.21a122.12,122.12,0,0,0-79.87,74.17c-10.73,28.19-10.14,60.57.91,88.55,2.48,6.29,5,12.56,7.53,18.85l39.33,98.27,47.41,118.49c8.79,22,17.49,44,26.39,66,.14.34.27.68.41,1,2,5,5.86,8.81,11.57,8.81H751.43c16.94,0,34.06.74,51,0h.71c5.77,0,9.57-3.82,11.57-8.81L838.26,1135l48.82-122,41.14-102.81c2.54-6.34,5.1-12.66,7.6-19,12.39-31.45,10.95-66.76-2.93-97.43-16.32-36.07-51-61.59-89.77-68.29-21.35-3.68-42.83-2.76-64.07,1.16a239,239,0,0,0-31.18,8c-4.52,1.48-8.94,3.35-13.48,4.76-3.87,1.2-6.88,1.16-11.28,1.3-9,.29-18.62.9-26,6.61-5.12,3.95-7.88,10.31-4.31,16.42,3,5,11.26,8.29,16.42,4.3Z" class="cls-2"></path><path d="M406.63,918.18,430,1011.71l37,148,8.55,34.2c3.75,15,26.9,8.63,23.15-6.38L475.32,1094l-37-148-8.55-34.2c-3.74-15-26.89-8.63-23.14,6.38Z" class="cls-2"></path><path d="M760.5,911.8l-23.38,93.53-37,148-8.55,34.2c-3.74,15,19.4,21.38,23.15,6.38l23.38-93.53,37-148,8.55-34.2c3.74-15-19.4-21.38-23.15-6.38Z" class="cls-2"></path><path d="M587,127S712.31,366.87,875.09,359.33C875.09,359.33,854.73,114.59,587,127Z" class="cls-2"></path><ellipse ry="99.92" rx="49.53" cy="502.42" cx="453.85" class="cls-5"></ellipse><path d="M491.38,502.42c-.07,17.95-2.33,35.78-8.08,52.85-4.14,12.28-9.92,23.72-19.62,31.53,2-1.62-.86.51-1.51.9-1.05.65-2.15,1.19-3.25,1.75,2.57-1.31-.45.1-1.33.35-.55.15-1.16.24-1.7.42-2.35.77,2.19.17-.28.06a34.44,34.44,0,0,0-3.52,0c-2,.09.09,0,.59.1-.57-.13-1.16-.19-1.72-.36-1.14-.33-2.26-.67-3.38-1.07,2.85,1-1.24-.75-2.05-1.25-.65-.39-3.53-2.52-1.51-.9-1.06-.85-2.07-1.75-3-2.69s-2-2-2.93-3.07c-.49-.55-1-1.11-1.42-1.68,1.44,1.76-.8-1.1-.87-1.2a87.78,87.78,0,0,1-9.43-17.55c-12.71-32.83-13.47-71.76-3.68-105.44a97.33,97.33,0,0,1,7.71-19.65c3.5-6.61,5.88-10.13,10.25-14.43a41,41,0,0,1,3.41-3c-2,1.58.88-.53,1.51-.91,1.06-.64,2.15-1.19,3.25-1.75-2.44,1.24.79-.2,1.75-.46.57-.15,1.15-.23,1.71-.39,1.63-.45-2.27.11-.58.06,1.3,0,2.65,0,3.95,0,.76,0,2.11.53-.59-.11.58.13,1.16.19,1.72.36s4,1.36,2.78.83c-1.54-.67.27.15.63.35.67.38,1.36.74,2,1.14s1.05.72,1.6,1c2.25,1.32-1.14-1.15.68.51,1.28,1.16,2.56,2.29,3.75,3.54.5.52,1,1.05,1.45,1.58.17.2,2,2.39,1.18,1.35s.61.83.78,1.06c.56.8,1.12,1.6,1.66,2.42,1.12,1.7,2.17,3.45,3.16,5.23a86.84,86.84,0,0,1,4.68,9.72c7.37,18.75,10.19,38.79,10.27,58.85.07,15.44,24.07,15.47,24,0-.09-21.31-2.87-43.23-10.37-63.27-5.95-15.88-14.5-31.55-28.74-41.43A39.2,39.2,0,0,0,435,395.48c-14.78,7.9-24,23.58-30.28,38.53-15.94,38.18-16.72,85.56-4.39,124.86,8.45,26.94,31.79,66.19,66.14,53.22,17.06-6.44,28.24-22.21,35.24-38.4,9.71-22.43,13.54-46.93,13.64-71.27C515.45,487,491.45,487,491.38,502.42Z" class="cls-2"></path><ellipse ry="99.92" rx="49.53" cy="502.42" cx="728.45" class="cls-5"></ellipse><path d="M766,502.42c-.08,17.95-2.34,35.78-8.09,52.85C753.76,567.55,748,579,738.29,586.8c2-1.62-.86.51-1.51.9-1.06.65-2.16,1.19-3.26,1.75,2.58-1.31-.45.1-1.32.35-.55.15-1.17.24-1.71.42-2.35.77,2.19.17-.28.06a34.24,34.24,0,0,0-3.51,0c-2.06.09.08,0,.58.1-.57-.13-1.16-.19-1.72-.36-1.14-.33-2.26-.67-3.38-1.07,2.85,1-1.24-.75-2-1.25-.65-.39-3.52-2.52-1.51-.9-1-.85-2.07-1.75-3-2.69s-2-2-2.93-3.07c-.48-.55-.95-1.11-1.42-1.68,1.45,1.76-.8-1.1-.87-1.2a87.2,87.2,0,0,1-9.42-17.55c-12.71-32.83-13.47-71.76-3.69-105.44A97.93,97.93,0,0,1,705,435.52c3.5-6.61,5.87-10.13,10.24-14.43a42.69,42.69,0,0,1,3.41-3c-2,1.58.89-.53,1.51-.91,1.06-.64,2.15-1.19,3.26-1.75-2.45,1.24.78-.2,1.75-.46.56-.15,1.15-.23,1.71-.39,1.62-.45-2.28.11-.59.06,1.3,0,2.65,0,4,0,.76,0,2.11.53-.58-.11.57.13,1.15.19,1.72.36s4,1.36,2.77.83c-1.53-.67.27.15.63.35.67.38,1.36.74,2,1.14s1.05.72,1.59,1c2.26,1.32-1.14-1.15.69.51,1.27,1.16,2.55,2.29,3.74,3.54.5.52,1,1.05,1.45,1.58.18.2,2,2.39,1.18,1.35s.61.83.78,1.06c.56.8,1.12,1.6,1.66,2.42,1.12,1.7,2.17,3.45,3.17,5.23a88.39,88.39,0,0,1,4.67,9.72c7.38,18.75,10.19,38.79,10.28,58.85.06,15.44,24.06,15.47,24,0-.09-21.31-2.88-43.23-10.38-63.27-5.94-15.88-14.5-31.55-28.73-41.43a39.21,39.21,0,0,0-41.25-2.24c-14.78,7.9-24,23.58-30.28,38.53-15.93,38.18-16.71,85.56-4.38,124.86,8.44,26.94,31.78,66.19,66.13,53.22,17.06-6.44,28.24-22.21,35.25-38.4,9.7-22.43,13.53-46.93,13.64-71.27C790.05,487,766.05,487,766,502.42Z" class="cls-2"></path><ellipse ry="72.59" rx="25.36" cy="495.78" cx="478.03" class="cls-2"></ellipse><ellipse ry="72.59" rx="27.37" cy="495.78" cx="750.59" class="cls-2"></ellipse><path d="M579.77,136.39s26.41-52.74,84.61-58.2C664.38,78.19,662.49,140,579.77,136.39Z" class="cls-2"></path><polygon points="509.32 802.32 575.31 970.39 647.86 802.32 509.32 802.32" class="cls-6"></polygon><path d="M703.14,759.1c9.36-7.87,24.13-2.74,35.8-7.17a248.15,248.15,0,0,1,47.06-13c3.25-.54,6.52-1,9.83-1.37,3.66-.43,7.36-.74,11.08-.93a141.46,141.46,0,0,1,45.8,4.69c.72.2,1.44.41,2.15.63a107.69,107.69,0,0,1,43.9,25.61c32.65,31.32,42.34,79.7,25.54,121.71L803.12,1192.13h-418L263.93,889.27c-16.8-42-7.11-90.39,25.54-121.71a107.74,107.74,0,0,1,46-26.24c2.87-.81,5.76-1.51,8.65-2.1,19.65-4.05,39.71-3.38,58.61-.2q5.26.88,10.41,2h0c1.6.35,3.19.71,4.76,1.1a260.87,260.87,0,0,1,31.34,9.78" class="cls-7"></path><path d="M709.2,769.46a13.5,13.5,0,0,1,6.66-3c4.34-.57,8.78-.31,13.15-.64,9.88-.75,18.42-4.51,27.77-7.47,18.9-6,38.46-9.95,58.35-10,18.83,0,37.93,3.52,54.58,12.62a97,97,0,0,1,36.59,35c16.49,27.46,18.12,60.29,6.42,90-2.14,5.45-4.35,10.88-6.53,16.32l-38.81,97L819.14,1120,801,1165.29c-3,7.5-6.4,15-9,22.58-.12.37-.28.72-.42,1.07l11.57-8.81H402.21c-5.41,0-11-.4-16.4,0-.23,0-.47,0-.7,0l11.57,8.81-21.06-52.64-44.9-112.22-42-105c-9.64-24.1-21.38-48-20.86-74.07.62-30.71,16-61.34,42.49-79,15.46-10.34,33.45-16,52-17.23a162.4,162.4,0,0,1,31.25.92c4.07.51,8.12,1.22,12.14,2,1.15.23,2.3.5,3.45.72s5.88,1.34,3.26.58c-2.17-.64,1,.38,1.58.51,1.5.36,3,.73,4.49,1.12a270,270,0,0,1,27.64,8.85c6.06,2.29,13.15-2.54,14.76-8.38,1.85-6.73-2.29-12.47-8.38-14.76A269.59,269.59,0,0,0,423,731c-2.19-.55-4.4-1.15-6.62-1.56-.52-.09-5.51-1.3-1.73-.37-1.14-.28-2.31-.48-3.46-.71-5.54-1.08-11.12-1.9-16.72-2.59-21-2.6-42.69-1.71-63,4.2a122.15,122.15,0,0,0-79.87,74.17c-10.73,28.19-10.14,60.57.91,88.55,2.48,6.3,5,12.57,7.53,18.85l39.33,98.27,47.41,118.49c8.79,22,17.49,44,26.39,66,.14.34.27.68.41,1,2,5,5.86,8.81,11.57,8.81H751.43c16.94,0,34.06.74,51,0,.24,0,.47,0,.71,0,5.77,0,9.57-3.82,11.57-8.81l23.57-58.91,48.82-122,41.14-102.81c2.54-6.34,5.1-12.66,7.6-19,12.39-31.45,10.95-66.76-2.93-97.43-16.32-36.07-51-61.59-89.77-68.29-21.35-3.68-42.83-2.76-64.07,1.16a239,239,0,0,0-31.18,8.05c-4.52,1.48-8.94,3.35-13.48,4.76-3.87,1.2-6.88,1.16-11.28,1.3-9,.29-18.62.9-26,6.61-5.12,4-7.88,10.31-4.31,16.42,3,5,11.26,8.29,16.42,4.3Z" class="cls-2"></path><path d="M406.63,919.6,430,1013.13l37,148,8.55,34.2c3.75,15,26.9,8.63,23.15-6.38l-23.39-93.53-37-148-8.55-34.2c-3.74-15-26.89-8.63-23.14,6.38Z" class="cls-2"></path><path d="M760.5,913.22l-23.38,93.53-37,148-8.55,34.2c-3.74,15,19.4,21.38,23.15,6.38l23.38-93.53,37-148,8.55-34.2c3.74-15-19.4-21.38-23.15-6.38Z" class="cls-2"></path><polygon points="422.38 747.02 358.4 783.92 508.09 867.84 561.08 811.42 422.38 747.02" class="cls-7"></polygon><path d="M416.32,736.66l-64,36.89c-7.71,4.45-7.87,16.32,0,20.73l50.45,28.28,80.55,45.16L502,878.2c4.54,2.54,10.87,2,14.54-1.88l53-56.42c4.85-5.16,4.87-15.46-2.43-18.85l-121.27-56.3-17.44-8.09C422.56,733.93,415.5,735,412,741c-3,5.18-1.6,13.67,4.3,16.41l121.27,56.3,17.44,8.1-2.43-18.85-53,56.42,14.55-1.87L463.7,829.2,383.14,784l-18.69-10.48v20.73l64-36.9C441.81,749.67,429.74,728.92,416.32,736.66Z" class="cls-2"></path><polygon points="487.13 768.52 665.74 775.74 629.19 814.53 670.04 1180.66 516.92 1181.51 564.43 811.42 487.13 768.52" class="cls-8"></polygon><path d="M547.68,823.17,543.3,859.9l-10.53,88.21-12.67,106.2-11,92.28c-1.77,14.84-4.63,30-5.36,44.9,0,.22-.05.43-.07.64-.77,6.45,6.06,12,12,12,7.12,0,11.23-5.53,12-12L532,1155.4l10.53-88.21L555.23,961l11-92.28c1.77-14.84,4.63-30,5.36-44.91,0-.21,0-.42.07-.63.77-6.45-6.06-12-12-12-7.12,0-11.23,5.53-12,12L543.3,859.9l-10.53,88.21-12.67,106.2-11,92.28c-1.77,14.84-4.63,30-5.36,44.9,0,.22-.05.43-.07.64-.77,6.45,6.06,12,12,12,7.12,0,11.23-5.53,12-12L532,1155.4l10.53-88.21L555.23,961l11-92.28c1.77-14.84,4.63-30,5.36-44.91,0-.21,0-.42.07-.63.77-6.45-6.06-12-12-12C552.56,811.17,548.45,816.7,547.68,823.17Z" class="cls-2"></path><polygon points="765.82 747.02 829.8 783.92 680.1 867.84 627.11 811.42 765.82 747.02" class="cls-7"></polygon><path d="M759.76,757.38l64,36.9V773.55l-50.45,28.29L692.74,847l-18.69,10.48,14.54,1.87-53-56.42-2.42,18.85,121.27-56.3,17.43-8.1c5.88-2.73,7.36-11.2,4.31-16.41-3.53-6-10.52-7.05-16.42-4.31L638.49,793l-17.44,8.09c-7.29,3.39-7.27,13.69-2.43,18.85l53,56.42c3.68,3.92,10,4.43,14.54,1.88l50.45-28.28,80.55-45.16,18.69-10.48c7.87-4.41,7.72-16.28,0-20.73l-64-36.89C758.47,728.93,746.37,749.66,759.76,757.38Z" class="cls-2"></path><path d="M617.19,814.53l4.1,37.31,9.8,89.08L643,1049.14l10.25,93.15c1.67,15.14,3.23,30.3,5,45.44,0,.22,0,.45.07.68.71,6.44,5,12,12,12,5.94,0,12.72-5.52,12-12l-4.1-37.31-9.8-89.08L656.51,953.8l-10.25-93.15c-1.66-15.14-3.23-30.3-5-45.44,0-.23,0-.45-.07-.68-.71-6.44-5-12-12-12-5.94,0-12.71,5.52-12,12l4.1,37.31,9.8,89.08L643,1049.14l10.25,93.15c1.67,15.14,3.23,30.3,5,45.44,0,.22,0,.45.07.68.71,6.44,5,12,12,12,5.94,0,12.72-5.52,12-12l-4.1-37.31-9.8-89.08L656.51,953.8l-10.25-93.15c-1.66-15.14-3.23-30.3-5-45.44,0-.23,0-.45-.07-.68-.71-6.44-5-12-12-12C623.25,802.53,616.48,808.05,617.19,814.53Z" class="cls-2"></path><path d="M596.38,136.78c3.55-6.22,5.41-9.78,5.41-9.78-4.09-.19-8.11-.32-12.09-.39a95.91,95.91,0,0,0-44.39-32.25,49.33,49.33,0,0,0-79.4-10A49.34,49.34,0,0,0,391.68,127a49.32,49.32,0,0,0-49.15,45.24c-15.53,4-32.28,16.7-44.61,35.39-13.5,20.47-18.25,43-14.09,59.33a49.09,49.09,0,0,0-11.36,31.49,49.71,49.71,0,0,0,1.3,11.26,49.34,49.34,0,1,0,78.41,53,49.32,49.32,0,0,0,78.87-35.25A68.38,68.38,0,0,0,521,264c41.69-2,77.55-30.27,85-70.53A83.59,83.59,0,0,0,596.38,136.78Z" class="cls-2"></path><path d="M598.05,127c-3.55-6.22-5.4-9.77-5.4-9.77q6.12-.28,12.08-.39a95.84,95.84,0,0,1,44.39-32.25,49.34,49.34,0,0,1,79.41-10,49.32,49.32,0,0,1,74.23,42.59,49.33,49.33,0,0,1,49.15,45.24c15.52,4,32.27,16.69,44.6,35.39,13.51,20.47,18.26,43,14.1,59.33a49.26,49.26,0,0,1,10,42.75,49.34,49.34,0,1,1-78.41,53,49.31,49.31,0,0,1-78.86-35.24,69.65,69.65,0,0,1-9.12,2.36,68.38,68.38,0,0,1-80.86-65.85c-41.7-2-77.55-30.27-85-70.53A83.67,83.67,0,0,1,598.05,127Z" class="cls-2"></path><circle r="44.4" cy="82.57" cx="563.07" class="cls-2"></circle><circle r="44.4" cy="107.37" cx="636.01" class="cls-2"></circle><path d="M752.9,660.37a20.91,20.91,0,0,0-11-14.13,20.94,20.94,0,0,0-8.13-16.81c.21-7.17-3.84-16.06-11.34-23.3-6.84-6.61-15-10.31-21.78-10.55a21,21,0,0,0-21.17-14.67c-9.35-16.38-34.6-28.13-64.31-28.13a107.61,107.61,0,0,0-19.67,1.79,107.61,107.61,0,0,0-19.67-1.79c-30.66,0-56.6,12.51-65.17,29.72a21,21,0,0,0-13.83,15.37c-6.77.83-14.54,5.21-20.79,12.39-6.85,7.85-10.12,17.06-9.3,24.19a20.91,20.91,0,0,0-6.57,12.62,20.51,20.51,0,0,0-.08,4.82,21,21,0,1,0,30,26.77,21,21,0,0,0,35.22-10.39,30.21,30.21,0,0,0,3.7,1.52,29.06,29.06,0,0,0,36.68-18.54,28.57,28.57,0,0,0,1.11-4.63,39.45,39.45,0,0,0,30.74-10.49c8.41,11.14,23,16.57,37.55,14a28.73,28.73,0,0,0,1.5,4.51,29.06,29.06,0,0,0,41.7,13.49,21,21,0,0,0,36,7.32,21,21,0,0,0,38.58-15.12Z" class="cls-2"></path><path d="M566.77,687.32a176.38,176.38,0,0,1,47.9,2c6.36,1.19,12.94-1.76,14.76-8.38,1.61-5.84-2-13.56-8.38-14.76a199.25,199.25,0,0,0-54.28-2.89c-6.46.58-12,5.11-12,12,0,6,5.5,12.58,12,12Z" class="cls-2"></path><path d="M417.24,366.25l87.42,21.85c15,3.75,21.38-19.39,6.38-23.14L423.62,343.1c-15-3.74-21.38,19.4-6.38,23.15Z" class="cls-2"></path><path d="M682.7,382l87.42-21.85c15-3.75,8.63-26.9-6.38-23.15l-87.42,21.86c-15,3.74-8.63,26.89,6.38,23.14Z" class="cls-2"></path><path d="M790,720.42c0,29.77-85.08,53.89-190,53.89s-190-24.12-190-53.89" class="cls-1"></path><path d="M778,720.42c-.06,3,.08-.52.19-.48a13.28,13.28,0,0,1-.44,1.87c-.59,2.17-.54.49.31-.48a17,17,0,0,0-1.25,2.35c-.37.6-.91,1.18-1.22,1.8,1.42-2.8.67-.87-.23.12-1.32,1.43-2.81,2.64-4.24,4s1.85-1.24-.4.29c-.81.55-1.61,1.12-2.42,1.66-2.16,1.41-4.39,2.7-6.66,3.9s-4.46,2.27-6.74,3.3l-1.44.64c-1.7.76,1.65-.67-.12,0q-2.32,1-4.69,1.85c-27.3,10.28-56.77,15.15-85.69,18a643.31,643.31,0,0,1-112.92,1.15c-30.45-2.34-61.23-6.74-90.35-16.24q-4.77-1.56-9.47-3.35l-2.09-.82c-.26-.1-3-1.23-1.6-.64.72.3-2.58-1.17-3.37-1.54a96.15,96.15,0,0,1-13.6-7.75c-2.59-1.78.76.84-1-.78-.74-.66-1.5-1.28-2.22-2s-1.46-1.49-2.18-2.25c-2-2.05.53,1.13-.15-.12-.42-.79-1-1.56-1.45-2.33a7.37,7.37,0,0,0-.53-1c-.51-.6.66,2.68.45,1a8.9,8.9,0,0,0-.6-2.13c-.69-1.51.15,1.42.18,1.57a8.87,8.87,0,0,1-.09-1.63c-.26-15.42-24.27-15.47-24,0,.39,22.15,23.5,34.33,41.27,41.71,29.5,12.24,61.95,17.32,93.51,20.71a637.93,637.93,0,0,0,120.7,1.31c33.06-2.74,66.94-7.4,98.34-18.56,20.06-7.13,49.79-19.82,50.24-45.17.27-15.45-23.73-15.45-24,0Z" class="cls-2"></path></svg>