<svg xml:space="preserve" viewBox="0 0 4500 3500" height="3500px" width="4500px" y="0px" x="0px" xmlns:xlink="http://www.w3.org/1999/xlink" xmlns="http://www.w3.org/2000/svg" id="svg8" version="1.1">
<defs>
	
	
		
		
</defs>

	
	
		
	
		
	
	

<g id="layer2">
	<g transform="translate(4.35e-5)" id="g8178">
		<path d="M2134.999,414.648
			c-284.527-0.825-635.257,79.834-864.578,351.554c-107.608,127.5-161.5,247.293-184.192,358.012
			c-131.116,110.073-206.932,272.429-207.159,443.623c0.199,105.873,29.361,209.672,84.329,300.158
			c-224.43,85.958-372.642,301.375-372.702,541.704c0.273,161.736,68.041,316.019,186.959,425.642
			c3.737,6.082,6.012,9.426,6.012,9.426L500,3092.256h3500c0,0-141.185-38.273-264.459-103.654
			c76.107-67.286,119.764-163.938,119.932-265.524c-0.164-146.452-90.197-277.792-226.737-330.757
			c115.218-112.352,180.202-266.456,180.226-427.384c-0.56-211.643-113.121-407.173-295.861-513.939
			c35.535-73.429,54.107-153.908,54.343-235.483c0-300.545-243.639-544.187-544.185-544.187h-0.001
			c-67.519,0.003-134.445,12.571-197.366,37.062c-75.759-92.642-167.043-154.396-253.077-208.587
			C2504.071,456.505,2336.065,415.233,2134.999,414.648L2134.999,414.648z" fill="#F2F4FF" id="path20057-52-7-1-0"></path>
		<path d="M3653.283,1969.538
			c-153.55,0.376-288.005,32.296-364.91,120.395c-273.444,313.237-223.257,465.117-558.14,488.372
			c-334.885,23.257-557.837-56.957-681.245,228.499c-102.894,238.003-443.323,136.926-615.668,285.452h2566.679
			c0,0-141.185-38.272-264.458-103.654c76.107-67.286,119.763-163.938,119.932-265.524
			c-0.164-146.452-90.197-277.791-226.737-330.757c111.69-109.178,176.153-257.774,179.564-413.925
			C3755.486,1972.661,3703.367,1969.416,3653.283,1969.538L3653.283,1969.538z" fill="#E7EAFF" id="path20059-1-3-7-9"></path>
		<path d="M2122.578,763.238c-27.899,0-50.36,22.46-50.36,50.359
			v2278.288h100.722V813.598C2172.94,785.698,2150.479,763.238,2122.578,763.238L2122.578,763.238z" fill="#E3E1FF" id="rect14399"></path>
		<path d="M1642.536,2151.757
			h1469.154c97.387,0-86.817,80.546-86.817,180.596v496.382c0,100.049,184.204,180.596,86.817,180.596H1642.536
			c-97.386,0-175.786-80.547-175.786-180.596v-496.382C1466.75,2232.303,1545.149,2151.757,1642.536,2151.757z" fill="#A5A3FF" id="path13977"></path>
		<path d="M1682.226,1775.975h997.093
			c100.051,0,180.596,80.546,180.596,180.596v544.331c0,100.05-80.545,180.596-180.596,180.596h-997.093
			c-100.051,0-180.596-80.546-180.596-180.596V1956.57C1501.629,1856.521,1582.175,1775.975,1682.226,1775.975L1682.226,1775.975z" fill="#B7BBFF" id="rect13955"></path>
		<path d="M1563.518,1775.975
			h79.807c100.05,0,180.596,80.546,180.596,180.596v544.331c0,100.05-80.545,180.596-180.596,180.596h-79.807
			c-100.05,0-180.596-80.546-180.596-180.596V1956.57C1382.922,1856.521,1463.467,1775.975,1563.518,1775.975L1563.518,1775.975z" fill="#A5A3FF" id="rect13959"></path>
		<path d="M1821.911,2462.162h1185.32
			c100.05,0,180.596,73.739,180.596,165.334s-80.546,165.335-180.596,165.335h-1185.32c-100.05,0-180.596-73.74-180.596-165.335
			C1641.315,2535.9,1721.861,2462.162,1821.911,2462.162z" fill="#E3E1FF" id="rect13971"></path>
		<path d="M1432.652,2151.757
			h502.136c100.049,0-89.194,80.546-89.194,180.596v496.382c0,100.049,189.243,180.596,89.194,180.596h-502.136
			c-100.05,0-180.596-80.547-180.596-180.596v-496.382C1252.057,2232.303,1332.602,2151.757,1432.652,2151.757z" fill="#A5A3FF" id="path13967"></path>
		<path d="M1896.691,2151.757
			h16.514c100.051,0,180.596,80.546,180.596,180.596v496.382c0,100.049-80.545,180.596-180.596,180.596h-16.514
			c-100.05,0-180.596-80.547-180.596-180.596v-496.382C1716.095,2232.303,1796.641,2151.757,1896.691,2151.757L1896.691,2151.757z" fill="#B7BBFF" id="rect13961"></path>
		<path d="M1896.691,2151.757
			h16.514c100.051,0,180.596,80.546,180.596,180.596v53.794c0,100.05-80.545,180.596-180.596,180.596h-16.514
			c-100.05,0-180.596-80.546-180.596-180.596v-53.794C1716.095,2232.303,1796.641,2151.757,1896.691,2151.757L1896.691,2151.757z" fill="#E3E1FF" id="path13969"></path>
		<path d="M3118.6,2151.757h16.515
			c100.05,0,180.596,80.546,180.596,180.596v496.382c0,100.049-80.546,180.596-180.596,180.596H3118.6
			c-100.05,0-180.596-80.547-180.596-180.596v-496.382C2938.004,2232.303,3018.55,2151.757,3118.6,2151.757z" fill="#B7BBFF" id="path13979"></path>
		<path d="M3118.6,2151.757h16.515
			c100.05,0,180.596,80.546,180.596,180.596v53.794c0,100.05-80.546,180.596-180.596,180.596H3118.6
			c-100.05,0-180.596-80.546-180.596-180.596v-53.794C2938.004,2232.303,3018.55,2151.757,3118.6,2151.757z" fill="#E3E1FF" id="path13981"></path>
		<path d="M1837.173,2813.18h106.832v278.706h-106.832V2813.18z" fill="#B7BBFF" id="rect13984"></path>
		<path d="M3086.083,2813.18h106.831v278.706h-106.831V2813.18z" fill="#B7BBFF" id="rect13986"></path>
		<path d="M2770.676,2813.18h106.832v278.706h-106.832V2813.18z" fill="#A5A3FF" id="rect13988"></path>
		<path d="M1371.693,2813.18h106.832v278.706h-106.832V2813.18z" fill="#A5A3FF" id="rect13990"></path>
		<path d="M1705.228,1329.384
			l834.067,0.876c53.716,0.057,88.854-43.469,82.053-96.753l-37.142-290.972c-6.802-53.283-43-97.159-96.716-97.203l-720.443-0.59
			c-53.716-0.044-90.407,43.431-97.203,96.715l-37.092,290.786C1625.955,1285.525,1651.511,1329.328,1705.228,1329.384
			L1705.228,1329.384z" fill="#CECFFF" id="path10190-3-7"></path>
		<path d="M1911.978,1329.384
			l425.147,0.876c27.38,0.057,45.291-43.469,41.824-96.753l-18.932-290.972c-3.468-53.283-21.919-97.159-49.299-97.203
			l-367.229-0.59c-27.38-0.044-46.082,43.431-49.547,96.715l-18.907,290.786C1871.571,1285.525,1884.598,1329.328,1911.978,1329.384
			L1911.978,1329.384z" fill="#B7BBFF" id="path14405"></path>
		<path d="M2608.489,1807.353
			c-9.416,2.92-17.624,6.342-22.831,10.286c-20.83,15.776,14.187,50.14,14.187,50.14s-29.061,27.858-39.037,38.094
			c-6.176,10.066-9.37,24.172,1.14,41.288c28.536,46.696,124.721,55.127,168.212,15.726
			c12.868-13.349,53.952-110.208,53.952-110.208l1.817-2.333l-65.179-64.211c-10.25,3.551-23.189,4.514-43.155,7.927
			C2675.876,1794.354,2636.739,1798.595,2608.489,1807.353L2608.489,1807.353z" fill="#F6CDC1" id="path6361"></path>
		
			<path d="M2377.073,1972.069l-10.985-53.829c-1.884-12.701,0.661-25.863,14.199-37.144l46.118-37.946
			c18.263-15.026,42.206-29.558,64.294-21.105l216.162,82.717c22.088,8.452,33.065,33.038,24.613,55.126l-49.332,128.919
			c-8.453,22.089-33.039,33.066-55.127,24.614l-216.162-82.717C2388.766,2022.252,2381.802,1995.241,2377.073,1972.069z" fill="#F2F4FF" id="path14407"></path>
		<path d="M2489.976,1930.548c0,26.38-21.385,47.766-47.765,47.766
			c-26.379,0-47.764-21.385-47.764-47.765c0,0,0,0,0-0.001c0-26.378,21.385-47.764,47.764-47.764l0,0
			C2468.591,1882.784,2489.976,1904.17,2489.976,1930.548z" fill="#A5A3FF" id="path14409"></path>
		<path d="M2235.448,1714.305
			c-44.297,0-42.125,61.394-34.623,61.527h95.294l112.412,155.413c-0.242,17.16,13.603,31.201,30.764,31.201
			c17.162,0,31.007-14.041,30.764-31.201l-112.412-186.177c-7.644-17.439-28.163-30.762-45.152-30.763L2235.448,1714.305z" fill="#A5A3FF" id="path14421"></path>
		<path d="M2288.453,937.393
			l49.875-23.039c11.93-4.747,25.324-5.289,39.409,5.3l47.514,36.185c18.815,14.329,38.45,34.301,35.29,57.739l-30.928,229.372
			c-3.161,23.438-24.574,39.762-48.012,36.602l-136.798-18.446c-23.438-3.16-39.762-24.573-36.602-48.01l30.929-229.372
			C2242.291,960.285,2266.983,947.311,2288.453,937.393L2288.453,937.393z" fill="#F2F4FF" id="path14426"></path>
		<path d="M2398.109,999.589c0,26.38-21.385,47.764-47.764,47.764
			c-26.38,0.001-47.765-21.384-47.765-47.763c0-0.001,0-0.001,0-0.001c0-26.379,21.385-47.764,47.765-47.764l0,0
			C2376.725,951.825,2398.109,973.209,2398.109,999.589z" fill="#A5A3FF" id="path14428"></path>
		<path d="M2255.096,783.345
			c-44.297,0-42.126,61.394-34.624,61.527h95.295v143.272c-0.243,17.161,13.602,31.202,30.763,31.202
			c17.162,0,31.007-14.042,30.764-31.202V814.109c0-16.99-13.773-30.762-30.764-30.764H2255.096z" fill="#A5A3FF" id="path14430"></path>
		<path d="M3320.744,3008.905
			l8.139-66.259h-79.388h-18.911l-1.645,93.362L3320.744,3008.905z" fill="#F6C6C0" id="path913-0-5"></path>
		<path d="M3111.733,900.278
			c53.825-17.392,101.438-29.158,138.704-41.589c89.871-29.978,121.303-32.473,221.79,15.513
			c99.104,63.023,285.045,156.166,325.837,219.676c57.297,98.952-12.718,323.917-64.164,401.553l36.422,115.247l16.534,95.385
			l-369.595,16.047c-91.354-134.113-151.922-220.597-290.345-303.298l-37.269,149.5
			c-48.797,126.796-190.371,205.762-251.651,263.368l-105.472-97.505c0,0,166.2-143.325,184.355-211.295
			c5.921-47.477,3.645-89.245-1.322-127.553c-14.888-114.792-53.957-198.517,30.864-311.707
			C3013.635,994.426,3111.733,900.278,3111.733,900.278L3111.733,900.278z" fill="#6584F7" id="path6339"></path>
		<path d="M2840.519,791.985
			l-13.071,64.141C2742.475,861.866,2747.284,665.952,2840.519,791.985z" fill="#F69CB3" id="path883-9"></path>
		<path d="M2780.375,664.283
			c0,0-26.359,10.786-36.577,39.342c-10.218,28.555,53.519,103.594,53.519,103.594L2780.375,664.283z" fill="#3D3D3D" id="path876-7-88"></path>
		<path d="M3007.739,606.391
			c0,0,38.127-9.053,57.037,37.259c18.909,46.313-7.026,145.658-7.026,145.658c18.936,64.224,6.33,120.487-61.742,69.783
			c-31.182-25.034-75.771-185.99-75.771-185.99s-100.868,34.682-149.59,9.709s-111.946-114.357-55.989-143.514
			s77.019,10.625,203.675-17.687C2984.479,506.824,3021.818,556.521,3007.739,606.391L3007.739,606.391z" fill="#3D3D3D" id="path874-7-7"></path>
		<path d="M3016.492,792.832
			l76.95,94.468l-22.778,170.922l-48.658-28.127l-40.199-76.875L3016.492,792.832z" fill="#F6C6C0" id="path885-8"></path>
		<path d="M3025.077,794.103
			L2960,944.743l51.004,63.03c13.943-22.194,13.341-99.424,3.379-144.782L3025.077,794.103z" fill="#F69CB3" id="path887-3-8"></path>
		<path d="M3042.215,818.042
			c81.765-23.828,9.883-206.142-34.33-55.735c-23.941-27.595-70.607-65.966-60.203-129.26
			c-58.499,31.235-107.224,56.027-177.034,49.763C2795.562,977.599,2972.406,1128.146,3042.215,818.042z" fill="#F6C6C0" id="path870-4-1"></path>
		<path d="M3031.548,779.436
			c-0.633-1.416,0.003-23.687,9.599-40.67s23.119-1.043,23.119-1.043s-11.703-1.363-16.16,10.124
			c-4.458,11.488,18.954,20.708,1.557,36.782C3032.264,800.704,3031.548,779.436,3031.548,779.436L3031.548,779.436z" fill="#F69CB3" id="path894-3-4"></path>
		<path d="M3070.664,1058.222
			l22.778-170.922l-20.939-25.444c37.643,2.466,60.77,13.544,66.11,31.593l18.217,166.658L3070.664,1058.222z" fill="#FFFFFF" id="path881-1-2"></path>
		<path d="M3022.006,1030.095
			l-11.002-22.322l-9.464-11.167c-23.493,23.333-43.582,46.927-21.74,68.504c6.623,6.282,74.084,83.586,74.084,83.586l16.78-90.474
			L3022.006,1030.095z" fill="#FFFFFF" id="path884-3-21"></path>
		<path d="M3425.511,1748.143l-166.66,484.904c-25.499,69.177-34.948,127.243-34.463,199.379l1.867,277.663l4.329,232.558h98.299
			l24.416-232.558l58.108-339.395l173.671-290.597l47.03,269.221c6.989,40.77,14.063,64.966,25.255,98.26l89.447,266.108
			l71.838,228.96h90.159l-37.279-232.558l-55.545-339.384l-8.451-350.188l-5.938-246.034L3425.511,1748.143z" fill="#FF6853" id="path17531-2"></path>
		<path d="M3353.298,2710.089h-127.043l4.329,232.558h98.299
			L3353.298,2710.089z" fill="#E0523C" id="path935-5-2"></path>
		<path d="M3871.528,2710.089
			l-124.716,3.598l71.836,228.96h90.159L3871.528,2710.089z" fill="#E0523C" id="path933-4"></path>
		<path d="M3585.078,2080.098
			l-36.402-154.288h-37.072l8.927,261.672L3585.078,2080.098z" fill="#E0523C" id="path925-0-89"></path>
		<path d="M3417.263,1722.108
			l8.248,26.034l376.082,26.341l-14.736-68.422L3417.263,1722.108z" fill="#FFFFFF" id="path927-1"></path>
		<path d="M3230.584,2972.041
			l95.135,1.104l-4.975,35.761c0,0-91.354-5.955-91.559-6.983C3228.979,3000.895,3230.584,2972.041,3230.584,2972.041
			L3230.584,2972.041z" fill="#FFFFFF" id="path915-1-7"></path>
		<path d="M3071.216,3093.81
			h258.996l-9.468-84.904l-30.848-8.438c-21-20.273-59.438-25.245-85.671,4.632c0,0-48.013,34.546-71.434,35.132
			C3085.343,3040.231,3067.605,3049.313,3071.216,3093.81L3071.216,3093.81z" fill="#3D3D3D" id="path929-1-3"></path>
		<path d="M3837.206,3014.751
			l-18.559-72.104h71.249h18.91l12.11,93.362L3837.206,3014.751z" fill="#F6C6C0" id="path924-5-2"></path>
		<path d="M3912.9,2972.041
			l-85.859,2.902l10.165,39.808c0,0,83.259-11.801,83.466-12.829C3920.877,3000.895,3912.9,2972.041,3912.9,2972.041
			L3912.9,2972.041z" fill="#FFFFFF" id="path926-4-32"></path>
		<path d="M3988.508,3093.81
			c27.742,0-104.498,0-152.933,0l1.631-79.059l22.754-14.282c20.999-20.274,52.94-28.428,70.554,1.434
			C3953.355,3061.054,3992.202,3036.528,3988.508,3093.81L3988.508,3093.81z" fill="#3D3D3D" id="path928-3-77"></path>
		<path d="M3126.918,1418.811
			l-74.776-44.505l37.507,194.005L3126.918,1418.811z" fill="#3362C4" id="path6359"></path>
		<path d="M2803.055,1867.217
			l-96.375-94.947l25.846-38.096l105.472,97.505L2803.055,1867.217z" fill="#FFFFFF" id="path6363"></path>
		<path d="M2784.111,1852.679
			l-108.6-58.384l45.238-8.16l65.179,64.211L2784.111,1852.679z" fill="#F69CB3" id="path6365"></path>
		<path d="M1239.592,1392.787
			c-141.135,149.676,216.633,209.614,303.618,250.512l0.493-1.01c8.099,8.922,39.083,42.859,47.484,48.765
			c9.62,6.763,73.193,4.812,98.633,6.922c24.646,2.046,38.271-1.348,36.82-13.456c-0.046-0.391-0.109-0.789-0.188-1.199
			c-2.506-13.082-69.533-57.488-69.533-57.488s17.667-25.614,2.798-32.93c-14.871-7.316-58.612-3.644-60.086-3.612
			c-12.843,0.278-21.449-2.646-28.259-3.625l0,0c-86.929-38.116-115.032-82.125-200.288-127.949
			c-35.519-19.091-101.273-50.652-131.494-64.93L1239.592,1392.787z" fill="#F6CDC1" id="path4286-4-0"></path>
		<path d="M1107.773,3006.982
			l-8.14-66.26h79.389h18.911l1.644,93.363L1107.773,3006.982z" fill="#F6C6C0" id="path35634-0"></path>
		<path d="M541.494,1451.289c-4.055,11.716-11.176,30.366-14.608,43.946c-3.811,15.079-1.803,32.685,2.14,46.061
			c44.934,152.416,236.024,303.086,288.923,333.523l37.93-63.656c-72.065-12.794-175.587-200.978-221.886-291.017
			c3.168-12.928,8.3-25.914,11.826-35.437C606.309,1476.638,574.386,1458.5,541.494,1451.289L541.494,1451.289z" fill="#F6C6C0" id="path4286-4-2-8-8-7"></path>
		<path d="M797.254,1772.892
			c-19.222,0.814-38.396,33.618-47.564,52.664c10.987,8.941,21.281,16.901,30.682,23.863l33.63,9.137
			c0,0,30.081-26.237,31.245-34.533c0.92-6.559,0.065-6.163-15.55-23.97C819.191,1793.364,808.308,1784.105,797.254,1772.892z" fill="#F69CB3" id="path4417"></path>
		<path d="M827.934,1761.092
			c4.785,1.15,10.624,4.578,17.615,11.113c7.867,6.06,14.819,11.302,20.817,16.061l-31.59,138.51
			c-20.816-1.504-14.266-3.275-20.502-5.979c-5.774-2.982-11.103-7.078-15.909-11.983c12.778-26.722,18.662-102.009,18.662-102.009
			C806.241,1793.875,807.195,1756.105,827.934,1761.092L827.934,1761.092z" fill="#F6C6C0" id="path4400"></path>
		<path d="M1182.872,1805.943l19.39,902.223l-4.329,232.557h-98.299l-24.416-232.557l-56.888-541.861l-133.855,541.861l-57.447,232.557
			h-90.16l25.588-232.557l8.437-590.844c-36.678-92.911-61.701-248.861,73.189-285.005L1182.872,1805.943z" fill="#6584F7" id="path35658-8-24"></path>
		<path d="M1075.219,2708.166h127.043l-4.329,232.557h-98.299
			L1075.219,2708.166z" fill="#3362C4" id="path35660-9"></path>
		<path d="M762.457,2708.166h122.019l-57.447,232.557h-90.16
			L762.457,2708.166z" fill="#3362C4" id="path35662-5"></path>
		<path d="M1018.331,2166.305
			l23.144-87.986h37.074l-35.611,324.48L1018.331,2166.305z" fill="#3362C4" id="path35664-0"></path>
		<path d="M1182.902,1778.634
			l-0.03,27.31l-338.794,26.374l6.367-53.684H1182.902z" fill="#FFFFFF" id="path35666-2"></path>
		<path d="M1197.934,2970.117
			l-95.136,1.104l4.975,35.762c0,0,91.354-5.956,91.559-6.983C1199.537,2998.971,1197.934,2970.117,1197.934,2970.117z" fill="#FFFFFF" id="path35668-3"></path>
		<path d="M1357.302,3091.886
			h-258.997l9.468-84.903l30.848-8.438c21-20.274,59.438-25.245,85.671,4.632c0,0,48.013,34.545,71.434,35.131
			C1343.175,3038.308,1360.912,3047.389,1357.302,3091.886z" fill="#3D3D3D" id="path35670-0"></path>
		<path d="M816.563,3006.982
			l10.465-66.26h-71.249h-18.911l-12.11,93.363L816.563,3006.982z" fill="#F6C6C0" id="path35672-3"></path>
		<path d="M732.775,2970.117
			l89.457,1.104l-5.668,35.762c0,0-91.353-5.956-91.559-6.983C724.798,2998.971,732.775,2970.117,732.775,2970.117L732.775,2970.117
			z" fill="#FFFFFF" id="path35674-6"></path>
		<path d="M664.799,3091.886
			h155.476l-3.711-84.903l-30.848-8.438c-21-20.274-52.94-28.428-70.555,1.434C692.32,3059.131,661.104,3034.604,664.799,3091.886
			L664.799,3091.886z" fill="#3D3D3D" id="path35676-3-5"></path>
		<path d="M736.697,646.394
			c0,0-79.267,256.383-176.253,383.993c-96.987,127.61-39.758,231.605,82.605,231.524c122.364-0.08,370.921-58.256,370.921-58.256
			l98.446-26.131c0,0,69.547-100.289,9.934-185.796c-59.615-85.506-49.813-234.021-49.813-234.021S812.379,585.549,736.697,646.394
			L736.697,646.394z" fill="#3D3D3D" id="path4297-4-8-8-7-6"></path>
		<path d="M933.439,1020.105c-34.466-2.162-26.137-21.923-26.137-21.923c-60.65,26.571-157.824,61.883-220.694,119.984
			c-45.749,43.95-151.521,290.16-180.807,334.372c-1.704,2.571,1.384-2.619,0,0l140.017,32.171l70.273-91.679l91.71,167.04
			l42.644,218.564h332.458l-78.149-320.981c23.417-10.983,46.236-46.478,36.742-88.919c15.844,37.852,39.649,81.907,58.295,120.262
			l115.288-86.682c-39.59-75.051-96.154-183.202-122.039-237.559c-47.947-89.343-116.731-105.223-143.197-115.223
			C953.099,1008.929,975.037,1022.713,933.439,1020.105L933.439,1020.105z" fill="#FF6853" id="path4262-7-9-5-0"></path>
		<path d="M1054.868,785.354
			l20.009,62.327C1159.968,844.093,1133.758,649.88,1054.868,785.354z" fill="#F69CB3" id="path4242-0-8-5-7"></path>
		<path d="M857.232,833.316
			c0,0,0.556,82.975-3.324,118.911c-3.879,35.935-4.417,55.503-4.417,55.503l82.759,85.854l48.791-39.85l-18.728-94.38
			L857.232,833.316z" fill="#F6C6C0" id="path4248-1-7-73-0"></path>
		<path d="M857.232,833.316
			l105.081,126.039l14.166,71.387c-18.549,2.621-38.527,0.581-52.164-14.302c-32.352-35.311-37.313-120.085-37.313-120.085
			L857.232,833.316z" fill="#F69CB3" id="path4250-1-3-9-3"></path>
		<path d="M857.232,833.316
			c-83.88-14.742-32.37-203.824,28.029-59.156c20.779-30.047,62.968-73.292,45.701-135.068
			c61.565,24.649,112.71,43.963,181.416,30.101C1119.857,964.937,960.541,1133.924,857.232,833.316L857.232,833.316z" fill="#F6C6C0" id="path4252-8-9-7-4"></path>
		<path d="M863.612,793.775
			c0.475-1.477-2.593-23.544-13.988-39.376c-11.396-15.832-23.095,1.491-23.095,1.491s11.484-2.634,17.171,8.296
			c5.688,10.932-16.575,22.657,2.477,36.732C865.229,814.994,863.612,793.775,863.612,793.775z" fill="#F69CB3" id="path4254-5-5-9-1"></path>
		<path d="M932.25,1093.584
			l-82.184-93.799l2.348-30.095c-32.211,19.632-38.351,53.48-34.716,71.948l48.117,119.044L932.25,1093.584z" fill="#FFFFFF" id="path4256-48-3-74-6"></path>
		<path d="M981.041,1053.734l-11.425-57.474c31.633,9.786,58.206,56.759,48.854,86.002c-2.956,8.636-29.414,83.709-29.414,83.709
			l-56.807-72.388L981.041,1053.734z" fill="#FFFFFF" id="path4258-6-9-5-6-41"></path>
		<path d="M1111.422,683.696c-23.892,70.278-152.803,157.265-220.35,122.048l-5.811-31.584c0,0-17.229-46.039-41.641-53.829
			c-24.411-7.792-106.924-73.937-106.924-73.937s38.382-117.914,118.444-165.651c80.063-47.738,195.804,14.979,262.625,61.923
			c38.426,26.996,25.066,76.929,25.066,76.929c15.381,40.636,42.823,75.077,15.394,119.878
			c-27.429,44.803-52.674,51.087-52.674,51.087S1113.671,731.564,1111.422,683.696L1111.422,683.696z" fill="#3D3D3D" id="path4260-9-9-5-2"></path>
		<path d="M1099.634,2940.723l3.164,30.498l95.136-1.104v-29.395
			H1099.634z" fill="#F6CDC1" id="path36129-6"></path>
		<path d="M716.09,1393.03l4.651-122.194
			c0,0-74.924,213.873-74.924,213.873L716.09,1393.03z" fill="#E0523C" id="path4413"></path>
		<path d="M653.217,1485.942
			l24.852-30.847L500,1381.662l1.205,78.67L653.217,1485.942z" fill="#FFFFFF" id="path2763"></path>
		<path d="M817.026,1806.805
			c-27.749-17.107-54.786,13.174-65.966,37.368c-15.792,36.755,18.624,68.838,60.504,78.127c37.785,2.33,58.13-4.186,63.216-34.746
			C877.168,1859.65,847.508,1814.554,817.026,1806.805z" fill="#F6C6C0" id="path4402"></path>
		<path d="M1141.495,1368.733l-17.213-78.011l117.442,165.117
			l-41.933,33.156L1141.495,1368.733z" fill="#E0523C" id="path4470"></path>
		<path d="M1199.79,1488.995
			l-31.724-23.722l147.435-112.264l18.34,76.511L1199.79,1488.995z" fill="#FFFFFF" id="path4407"></path>
		<path d="M1104.754,1457.652
			c0,0-48.608,15.283-91.364-6.916c-42.755-22.2-47.688-24.667-47.688-24.667s-43.578,31.245-69.888,34.534
			c-26.311,3.289-49.333-7.4-49.333-7.4s44.399,123.333,157.043,165.265c112.644,41.934,146.641,26.602,146.641,26.602
			L1104.754,1457.652z" fill="#E0523C" id="path4415"></path>
		<path d="M3476.771,1676.198
			c6.034,18.257,27.757,13.979,61.571-5.438c34.905-20.043,126.968-59.813,136.175-75.908
			c9.206-16.094,37.457-108.878,37.457-108.878l1.188-2.707l-78.92-46.292c-9.067,5.955-21.378,10.056-39.899,18.255
			c-2.127,0.941-67.029,24.979-83.36,45.378c-16.332,20.398,26.035,45.138,26.035,45.138s-65.962,108.26-60.782,128.613
			C3476.398,1674.998,3476.577,1675.61,3476.771,1676.198L3476.771,1676.198z" fill="#F6CDC1" id="path6351"></path>
		<path d="M3733.9,1495.43
			l-116.695-68.449l15.727-43.266l126.143,68.701L3733.9,1495.43z" fill="#FFFFFF" id="path6353"></path>
		<path d="M3711.975,1485.975
			l-119.595-30.006l41.863-18.993l78.92,46.292L3711.975,1485.975z" fill="#F69CB3" id="path6355"></path>
		<path d="M3632.932,1383.715l5.877-182.347l-170.422-96.657
			L3632.932,1383.715z" fill="#3362C4" id="path7901"></path>
	</g>
</g>
</svg>
